<?xml version="1.0" encoding="UTF-8"?><svg id="uuid-04f399ba-1505-45f6-809e-51fd5a7050be" xmlns="http://www.w3.org/2000/svg" viewBox="0 0 135.04 111.32"><g id="uuid-1c4e943a-7a45-4510-a251-6313b5d48222"><path d="M38.7,36.31c.08-.76,.34-2.27,1.5-3.5,.87-.92,1.86-1.33,2.5-1.5,4.59-1.2,9.98-1.04,12-1,3.07,.07,5.54,.03,7,0,.22-2.48,.43-8.55-3-15-2.72-5.12-6.46-8.1-8.5-9.5-2.06-1.63-6.36-4.57-12.5-5.5-5.36-.81-9.56,.14-12,1-3.13,1.11-14.56,4.68-21,16C1.19,23.47,.74,29.05,.2,35.81c-.65,8.11,.42,14.3,1.5,20.5,.88,5.05,2.36,11.57,5,19,1.83,3.5,4.41,7.68,8,12,4.55,5.46,9.24,9.34,13,12,2.06,1.62,4.72,3.41,8,5,5,2.43,9.61,3.5,13,4,5.91,1.59,14.14,3.14,24,3,8.69-.12,16.01-1.52,21.5-3,4.27-2.02,9.32-4.89,14.5-9,9.37-7.43,15.14-15.68,18.5-21.5,2.74-5.58,6.38-14.7,7.5-26.5,1.05-11.05-.52-20.14-2-26-1.2-3.38-3.29-8.1-7-13-4.1-5.41-8.55-8.91-11.69-11-1.53-.55-3.78-1.09-5.31,0-2.94,2.1-.48,8.35-1,15-.34,4.37-2.11,10.64-9,18-.76,1.15-2.17,2.98-4.5,4.5-3.05,1.99-6.04,2.4-7.5,2.5H42.7c-.51-.14-1.57-.52-2.5-1.5-1.31-1.38-1.47-3.02-1.5-3.5Z" fill="#efcbe4"/><circle cx="39.7" cy="17.31" r="3" fill="#fff"/><path d="M58.14,14.31c-1.05,.25-2.72,.78-4.44,2-1.46,1.04-2.42,2.18-3,3-.65,1.04-1.54,2.74-2,5-.52,2.58-.26,4.73,0,6h2.47c-.1-1.57-.05-3.65,.53-6,.28-1.14,.63-2.14,1-3,.28-.72,.85-1.9,2-3,1.67-1.6,3.55-2.04,4.34-2.18l-.9-1.82Z" fill="#fff"/><path d="M48.4,55.66v33.46c.22,.85,.88,2.92,2.8,4.69,2.19,2.02,4.65,2.41,5.5,2.5h22.22c.92-.15,4-.76,6.28-3.5,1.25-1.5,1.77-3.05,2-4,.08-.35,.65-2.87-1-5-1.06-1.37-2.46-1.85-3-2,1.23,.22,4.47,.63,8-1,2.64-1.21,4.24-3.01,5-4,.1-.32,1.01-3.49-1-6-1.04-1.3-2.37-1.81-3-2,.9,.18,5.73,1.09,10-2,2.35-1.7,3.49-3.85,4-5-.05-.79-.3-3-2-5-2.27-2.68-5.4-2.97-6.01-3.01H48.4v1.86Z" fill="none" stroke="#fff" stroke-miterlimit="10"/><path d="M54.2,58.81l-.48,28.47c.02,.47,.17,2.11,1.48,3.53,1.5,1.63,3.44,1.77,3.84,1.8h17.43c.64,0,2.84-.12,4.73-1.8,1.23-1.09,1.77-2.34,2-3-.14-.49-.6-1.91-2-3-1.65-1.28-3.44-1.22-3.9-1.19-3.26-.1-6.52-.2-9.78-.31v-4l14.68-.5c.48,.12,3.32,.77,6-1,2.08-1.37,2.8-3.37,3-4-.2-.63-.92-2.63-3-4-2.68-1.77-5.52-1.12-6-1v-3.23c3.67,.08,7.33,.15,11,.23,.64,.04,3.63,.17,6-2,1.16-1.06,1.73-2.26,2-3-.1-.42-.53-1.92-2-3-1.24-.91-2.53-.99-3-1H54.11l.09,2Z" fill="none" stroke="#fff" stroke-miterlimit="10"/></g></svg>