<?xml version="1.0" encoding="UTF-8"?><svg id="uuid-7c96f599-7065-41b8-a594-8c5d0fad85e3" xmlns="http://www.w3.org/2000/svg" viewBox="0 0 110.79 56.32"><g id="uuid-d2cc4406-080b-4194-bf5e-eb8702be5924"><path d="M109,11.32c-.39-3.54-2.12-5.98-2.95-7-.45-.56-1.12-1.29-2.05-2-.63-.48-1.96-1.49-3.91-2-2.25-.59-4.12-.21-5.09,0-3.56,.77-5.86,2.94-6.83,4V.32H21V34.69c.18,1.01,.64,2.82,2,4.62,1.97,2.62,4.57,3.56,5.55,3.86h58.24c2.92-3.56,5.99-7.19,9.21-10.86,3.37-3.84,6.71-7.5,10-11,.65-.81,3.58-4.65,3-10Zm-7,2c-.46,1.76-1.36,3.07-2.1,3.91-.81,1.41-2.05,3.25-3.9,5.09-1.81,1.8-3.61,3.02-5,3.82-.55-1.83-1.12-4.53-1-7.82,.09-2.42,.54-4.46,1-6,.06-.67,.27-1.82,1-3,1.31-2.11,3.39-2.82,4-3,.4-.09,1.13-.19,2,0,1,.22,1.68,.73,2,1,.5,.27,1.45,.87,2,2,.68,1.41,.32,2.8,0,4Z" fill="#7f5d5d"/><path d="M26.21,42.53l-26.21-.21c1.36,2.18,3.58,5.17,7,8,4.18,3.45,8.33,5.15,11,6,25-.33,50-.67,75-1,2.17-.24,8.05-1.2,13-6,2.58-2.5,4.01-5.16,4.79-7-28.19,.07-56.38,.14-84.58,.21Z" fill="#7f5d5d"/></g></svg>