<?xml version="1.0" encoding="UTF-8"?><svg id="uuid-e5c43124-a9fe-4f5a-8a0f-8c3a95667a8a" xmlns="http://www.w3.org/2000/svg" viewBox="0 0 113.5 129.5"><g id="uuid-4e0cf5b9-4ff5-4be1-b7a3-0074cb78a109"><path d="M0,129.5H111.22c-2.25-3.12-5.64-8.78-6.72-16.5-2.22-15.89,7.12-27.71,9-30-.1-.01-.24-.02-.42-.04-3.59-.28-7.16,.65-9.58,2.04-1.48,.85-3.01,2.91-6,7-3.27,4.47-4.91,6.7-6,9-1.07,2.24-2.42,5.77-2.98,10.5-2.77-8.89-5.54-20.99-6.02-35.5-.62-18.79,2.83-34.17,6.02-44.4-3.64,4.93-7.54,11.05-11.02,18.4-6.43,13.59-8.96,26.12-10,35.25-1.49-16.19-1.57-35.66,2-57.25,1.11-6.72,2.47-13.06,4-19-3.27,1.69-7.73,4.48-12,9-6.93,7.32-9.68,15.25-10.82,19.5-.3-3.77-1.67-14.61-10.18-24.5C33.07,4.37,24.24,1.13,20.5,0c5.3,11.31,10.91,25.76,15,43,4.59,19.35,5.92,36.51,6,50-1.7-6.85-5.42-20.52-11.5-33.5-2.24-4.78-4.89-9.66-10-14-2.95-2.51-5.81-4.06-7.84-5,2.62,5.49,5.45,12.73,7.34,21.5,2.32,10.75,2.44,20.11,2,27-.7-3.01-2.34-8.27-6.5-13.5-5.41-6.79-12-9.66-15-10.75,2.89,6.88,7.05,19.33,6.5,35.25-.44,12.91-3.81,23.12-6.5,29.5Z" fill="#124411"/></g></svg>