<?xml version="1.0" encoding="UTF-8"?><svg id="uuid-9407d7f1-ae98-4183-9bd2-23d9e3cb9282" xmlns="http://www.w3.org/2000/svg" viewBox="0 0 112.49 129.58"><g id="uuid-b579d31a-43d5-41b6-9449-963edc2af165"><g><path d="M49.05,129.08c-8.12,0-19.68-1.9-28.7-10.93-4.69-4.7-8.06-10.79-9.75-17.62l3.39-26.67c.28-1.48,.93-6.79-2.59-11.65-3.5-4.83-8.72-5.91-10.74-6.15,.75-2.07,2.41-3.61,4.45-4.07,.41-.09,.83-.14,1.26-.14,1.58,0,2.84,.66,3.35,.97l23.8,23.8-8.81-17.08c-1.84-2.97-5.9-10.9-4.22-20.96,1.17-7.01,4.63-12.07,7.19-14.98-.31,2.2-.28,5.04,.84,8.07,.7,1.89,1.74,3.62,3.09,5.16l11.13,13.04,.8-.59c-2.52-4.05-3.88-8.36-4.06-12.8-.13-3.22,.36-6.44,1.47-9.59l.02-.06v-.06c.35-3.76,1.57-9.41,5.42-14.99,4.21-6.09,9.7-9.31,13.17-10.86-2.21,5.67-3.25,11.58-3.09,17.59,.11,4.1,.79,8.18,2.02,12.14l.02,.05,.03,.05c1.22,2.1,2.58,4.13,4.03,6.05,2.64,3.48,5.68,6.67,9.03,9.5,1.51,2.01,2.83,4.17,3.92,6.41,1.73,3.57,2.89,7.39,3.46,11.35l.14,.99,.71-.7c2.01-2.01,5.56-6.34,6.64-12.77,1.12-6.66-.96-12.12-2.59-15.18,4.02,2.5,9.93,7.29,13.64,15.31,5.28,11.4,2.79,22.08,1.48,26.14l.95,.32,8.52-24.24c2.76,8.26,5.13,20.57,2.02,34.46-1.23,5.5-3.23,10.84-5.95,15.87-4.58,6.85-10.75,12.67-17.81,16.81-10.56,6.18-20.99,7.48-27.88,7.48-.89,0-1.68-.02-2.35-.05h-.11c-.99,.18-3.7,.58-7.36,.58h0Z" fill="#ef142e"/><path d="M58.69,1.9c-1.94,5.38-2.84,10.96-2.69,16.63,.11,4.15,.8,8.28,2.04,12.27l.03,.11,.06,.1c1.23,2.11,2.6,4.16,4.07,6.1,2.65,3.49,5.7,6.7,9.07,9.55,1.48,1.97,2.77,4.08,3.83,6.28,1.7,3.52,2.85,7.29,3.41,11.21l.28,1.98,1.41-1.41c2.06-2.05,5.67-6.47,6.78-13.04,.96-5.73-.39-10.59-1.83-13.85,3.83,2.66,8.72,7.15,11.94,14.1,5.21,11.24,2.75,21.77,1.46,25.77l1.89,.64,6-17.06,2.03-5.78c2.53,8.16,4.46,19.77,1.55,32.79-1.22,5.44-3.2,10.72-5.88,15.7-4.56,6.81-10.66,12.56-17.65,16.65-10.46,6.13-20.8,7.41-27.62,7.41-.78,0-1.54-.02-2.33-.05h-.21c-.98,.18-3.65,.58-7.28,.58-8.02,0-19.45-1.87-28.35-10.78-5.8-5.81-8.42-12.58-9.6-17.29l3.38-26.55c.3-1.6,.94-7.04-2.68-12.04-3.28-4.53-8.03-5.87-10.44-6.26,.77-1.62,2.17-2.8,3.85-3.18,.37-.09,.76-.13,1.15-.13,1.41,0,2.54,.57,3.04,.87l21.49,21.49,4.54,4.54-2.94-5.7-3.67-7.11-3.67-7.11-.02-.04-.02-.03c-1.79-2.89-5.78-10.69-4.13-20.58,1-6,3.71-10.54,6.05-13.51-.09,1.97,.13,4.27,1.02,6.69,.72,1.95,1.79,3.73,3.18,5.3l10.88,12.74,.21,.25c1.75,2.81,4.01,5.44,6.52,7.62l1.41-1.41-5.77-6.76-.54-.64c-2.44-3.96-3.77-8.17-3.95-12.5-.13-3.15,.36-6.31,1.44-9.4l.04-.12v-.12c.35-3.7,1.55-9.26,5.34-14.75,3.72-5.38,8.46-8.49,11.86-10.17m1.81-1.9c-2.7,1.07-9.43,4.17-14.5,11.5-4.27,6.19-5.23,12.3-5.5,15.23-.86,2.44-1.66,5.8-1.5,9.77,.21,5.26,2.04,9.66,4.14,13.05,2.12,2.48,4.24,4.97,6.36,7.45-1.07-.92-3.9-3.49-6.36-7.45-3.71-4.35-7.43-8.7-11.14-13.05-.93-1.05-2.15-2.71-3-5-1.55-4.19-.89-7.91-.5-9.5-1.96,1.98-7.01,7.6-8.5,16.5-1.82,10.9,2.96,19.16,4.26,21.27l7.34,14.23L10.03,52.43c-.36-.23-1.78-1.08-3.66-1.08-.43,0-.89,.05-1.37,.15-2.4,.54-4.32,2.48-5,5,.84,.05,7.04,.53,11,6,3.6,4.97,2.67,10.37,2.5,11.3-1.14,8.92-2.27,17.84-3.41,26.77,1.01,4.12,3.48,11.5,9.91,17.94,9.32,9.34,21.35,11.08,29.05,11.08,3.89,0,6.67-.44,7.45-.58,.68,.03,1.47,.05,2.37,.05,6.07,0,16.93-.99,28.13-7.55,9.53-5.58,15.17-12.77,18-17,2.22-4.12,4.54-9.49,6-16,3.58-16-.13-29.47-2.5-36.09-3,8.53-6,17.06-9,25.59,.86-2.67,4.24-14.11-1.5-26.5-4.67-10.08-12.65-14.94-15.5-16.5,.99,1.52,4.94,7.97,3.5,16.5-1.14,6.76-5.01,11.01-6.5,12.5-.43-3.02-1.37-7.09-3.5-11.5-1.27-2.63-2.69-4.81-4-6.54-2.79-2.35-5.96-5.46-9-9.46-1.58-2.08-2.9-4.11-4-6-.95-3.05-1.87-7.14-2-12-.22-8.18,1.89-14.66,3.5-18.5h0Z" fill="#d1283d"/></g></g></svg>