<?xml version="1.0" encoding="UTF-8"?><svg id="uuid-cdf3c945-c999-4c93-9bb7-b3feb61136d2" xmlns="http://www.w3.org/2000/svg" viewBox="0 0 144.16 103.81"><g id="uuid-b83eb591-7b17-4ada-a9bc-11cab87e369a"><g><ellipse cx="30.16" cy="46.28" rx="30.16" ry="24.76" fill="#e8ebed"/><ellipse cx="91.01" cy="32.82" rx="34.85" ry="32.82" fill="#e8ebed"/><circle cx="66.43" cy="34.74" r="33" fill="#e8ebed"/><ellipse cx="111.71" cy="34.74" rx="32.45" ry="28.95" fill="#e8ebed"/><path d="M73.22,99.72c-3.4,7.63-16.05,3.87-18.02-5.39s13.67-12.91,13.67-12.91c0,0,7.74,10.67,4.34,18.3Z" fill="#8bd6f3"/><path d="M105.91,86.34c-3.4,7.63-16.05,3.87-18.02-5.39s13.67-12.91,13.67-12.91c0,0,7.74,10.67,4.34,18.3Z" fill="#8bd6f3"/><path d="M40.22,93.72c-3.4,7.63-16.05,3.87-18.02-5.39s13.67-12.91,13.67-12.91c0,0,7.74,10.67,4.34,18.3Z" fill="#8bd6f3"/></g></g></svg>