<?xml version="1.0" encoding="UTF-8"?><svg id="uuid-d4cc989f-6aaf-49b7-962e-8cee3b7325af" xmlns="http://www.w3.org/2000/svg" viewBox="0 0 111.48 93.77"><g id="uuid-fc160ad1-5f57-4a69-a5c1-02944159d173"><polygon points="59 29 101 0 111.48 10.48 85.24 30 59 29" fill="#31393a"/><path d="M50,27H10.44c-2.21,2.31-5.61,6.44-7.94,12.5C.37,45.03,0,49.92,0,53c.33,3.47,2.18,18.9,15.5,30.5,16.13,14.05,59.89,12.66,75,2,6.79-4.79,11.02-10.44,13.5-14.5,1.62-4.04,4.07-11.69,3.5-21.5-.57-9.84-3.92-17.18-6-21-17.17-.5-34.33-1-51.5-1.5Z" fill="#636768"/></g></svg>