<?xml version="1.0" encoding="UTF-8"?><svg id="uuid-1e3f3641-e069-4de2-9ce5-2e50cdc97b39" xmlns="http://www.w3.org/2000/svg" viewBox="0 0 139.79 101.09"><g id="uuid-4038e2b1-6425-45d0-8a77-d7db2abc3196"><path d="M47.21,12.67c-.2-1.34-.88-4.55-3.5-7.5-3.3-3.71-7.47-4.51-8.7-4.7-2.75,.34-16.43,2.33-26.3,14.7C-.81,27.08-.12,40.26,.1,43.17c.55,5.86,2.76,21.07,14.6,35,15.89,18.71,37.46,21.39,42.27,21.87,8.55,1.33,25.71,2.75,44.73-4.87,9.88-3.96,17.35-9.18,22.5-13.5,5.22-4.38,9.61-8.49,12.5-15.5,4.73-11.48,2.22-24.07-1.5-27.5-1.45-1.34-2.13-2.06-3.5-3.5-2.33-2.46-3-3.43-3.5-4.5-.74-1.58-.94-3.04-1-4-.02-.52-.09-6.19,4.5-9.5,3.03-2.19,6.3-2.05,7.29-1.97,.32-.86,1.77-5-.29-9.03-2.24-4.37-7.7-6.82-13.4-5.7-4.06,.82-12.85,3.18-20.6,10.7-12.85,12.47-12.53,29.12-12.42,32-1.66-.43-6.83-1.97-10.58-7-2.49-3.33-3.24-6.71-3.5-8.5-.03-.7-.2-6.48,4.5-10.5,4.21-3.61,9.18-3.1,10-3,.17-1.2,.6-5.33-2-9-2.99-4.22-8.76-6.13-14.5-4.7-2.58,.82-5.49,1.99-8.5,3.7-9.14,5.18-14.36,12.5-17,17-1.05,1.65-2.47,4.38-3,8-1.01,6.93,1.95,12.29,3,14-1.11,.09-8.27,.52-14-5-6.03-5.8-5.58-13.47-5.5-14.5,.06-.45,1.12-7.69,7.5-10.5,3.79-1.67,7.32-.83,8.5-.5Z" fill="#1dc6dd"/></g></svg>